<?xml version="1.0" standalone="no"?>
<!DOCTYPE svg PUBLIC "-//W3C//DTD SVG 20010904//EN"
 "http://www.w3.org/TR/2001/REC-SVG-20010904/DTD/svg10.dtd">
<svg version="1.0" xmlns="http://www.w3.org/2000/svg"
 width="184px" height="100px" viewBox="0 0 500.000000 499.000000"
 preserveAspectRatio="xMidYMid meet">

<g transform="translate(0.000000,499.000000) scale(0.100000,-0.100000)"
fill="#418E6D" stroke="none">
<path d="M685 3056 c-103 -33 -231 -109 -218 -129 4 -6 1 -7 -6 -3 -16 10
-129 -108 -185 -194 -73 -112 -96 -184 -98 -306 -1 -70 27 -178 44 -168 7 4 8
3 4 -5 -9 -14 41 -84 54 -76 5 3 12 0 16 -6 5 -8 3 -9 -6 -4 -8 5 -11 3 -8 -6
3 -8 10 -13 16 -12 6 2 13 -5 16 -15 7 -19 46 -45 126 -81 71 -32 198 -35 275
-7 28 10 62 23 77 28 15 6 25 15 21 21 -4 6 -1 7 6 2 13 -8 121 60 121 76 0 5
6 9 13 9 17 0 69 54 60 63 -3 4 0 7 9 7 21 0 111 116 151 196 47 94 61 160 54
258 -5 82 -30 166 -50 166 -6 0 -8 3 -4 6 3 3 -1 13 -8 22 -57 70 -68 81 -77
75 -6 -3 -8 -1 -5 4 9 15 -61 59 -132 83 -81 27 -176 26 -266 -4z m256 -32
c25 -8 68 -29 95 -46 27 -18 53 -31 59 -29 5 1 7 -1 3 -5 -4 -4 8 -28 27 -54
65 -88 84 -169 66 -280 -13 -79 -74 -208 -129 -270 -21 -25 -44 -56 -51 -68
-7 -13 -15 -22 -17 -19 -9 8 -73 -56 -67 -66 3 -6 1 -7 -6 -3 -7 4 -26 -3 -44
-16 -162 -122 -355 -142 -492 -50 -226 151 -229 440 -7 682 37 41 66 78 64 83
-1 4 2 6 7 3 5 -4 11 -3 13 1 6 14 99 75 157 103 121 58 214 68 322 34z"/>
<path d="M764 2941 c2 -3 -11 -7 -30 -8 -19 -1 -47 -11 -63 -22 -16 -12 -34
-21 -39 -21 -21 0 -162 -122 -207 -178 -103 -129 -140 -270 -100 -376 10 -25
21 -46 24 -46 4 0 24 30 45 68 36 63 111 163 128 170 5 2 5 9 1 15 -3 7 -3 9
2 5 4 -4 27 6 51 22 23 17 45 30 47 30 15 0 198 93 232 118 76 55 145 139 128
156 -4 3 -1 6 6 6 22 0 -15 29 -63 51 -41 18 -172 27 -162 10z"/>
<path d="M1036 2808 c-3 -13 -26 -54 -50 -92 -25 -38 -43 -73 -39 -79 3 -6 1
-7 -6 -3 -7 5 -28 -8 -52 -32 -22 -23 -75 -57 -117 -78 -42 -20 -79 -40 -82
-43 -3 -3 -11 -7 -19 -9 -47 -10 -204 -138 -236 -192 -5 -10 -16 -27 -23 -38
-11 -19 -8 -23 34 -48 80 -47 163 -50 270 -10 59 22 115 56 108 67 -3 5 -1 8
4 7 16 -5 73 42 66 54 -4 6 -3 8 2 5 13 -7 22 -1 62 46 18 21 29 43 26 49 -4
6 -3 8 4 4 13 -8 59 60 90 131 30 71 30 175 0 238 -25 51 -33 55 -42 23z"/>
<path d="M1752 3009 c-78 -15 -154 -78 -188 -157 -38 -86 -13 -211 54 -278 36
-36 104 -74 132 -74 26 0 26 -25 0 -57 -11 -14 -20 -30 -20 -34 0 -5 66 -9
146 -9 l145 0 -3 38 -3 37 -68 0 c-81 0 -88 15 -22 45 25 12 43 25 40 31 -4 5
-1 8 7 7 7 -2 12 3 10 10 -1 6 3 11 10 10 6 -2 25 19 42 45 27 44 30 57 30
130 0 93 -14 128 -71 183 -67 66 -152 91 -241 73z m141 -100 c15 -11 33 -17
40 -13 6 4 9 4 5 0 -3 -4 4 -28 18 -53 41 -78 28 -158 -36 -225 -31 -32 -35
-33 -109 -33 -47 0 -84 5 -93 12 -8 7 -19 9 -23 5 -5 -4 -5 -2 -2 4 4 7 0 18
-9 25 -44 36 -61 160 -28 207 8 12 12 28 8 35 -4 6 -4 9 1 5 4 -4 22 4 41 18
61 47 131 52 187 13z m-218 -338 c3 -5 2 -12 -3 -15 -5 -3 -9 1 -9 9 0 17 3
19 12 6z"/>
<path d="M4492 3009 c-52 -10 -115 -47 -106 -61 4 -7 2 -8 -5 -4 -37 23 -110
-142 -98 -219 7 -42 33 -100 65 -142 33 -44 133 -93 190 -93 47 0 112 18 112
32 0 4 6 5 13 2 19 -7 91 65 119 118 31 59 31 166 1 224 -25 48 -92 111 -137
129 -45 18 -105 24 -154 14z m138 -100 c19 -12 39 -27 43 -35 5 -8 13 -11 19
-8 6 4 8 3 5 -3 -3 -5 1 -29 9 -53 12 -34 13 -53 4 -92 -5 -28 -7 -55 -3 -61
3 -7 2 -9 -2 -4 -5 4 -26 -10 -47 -30 -38 -37 -41 -38 -113 -38 -68 0 -76 2
-105 30 -49 47 -62 78 -59 153 1 51 7 72 21 89 12 13 17 27 12 35 -4 7 -4 10
0 6 5 -4 24 2 44 12 21 10 44 20 52 23 25 9 82 -2 120 -24z"/>
<path d="M2169 2968 c-1 -24 -3 -79 -5 -123 -7 -126 26 -288 55 -270 5 2 8 -3
7 -13 -2 -27 96 -72 158 -72 74 0 147 37 183 92 28 43 28 44 31 236 l4 192
-47 0 -46 0 0 -167 c0 -205 -1 -213 -13 -206 -6 4 -6 -1 -2 -13 4 -10 4 -15 0
-12 -4 4 -18 -2 -32 -12 -18 -14 -40 -20 -79 -20 -49 0 -59 4 -89 34 -19 19
-34 45 -35 58 0 12 -1 94 -2 181 l-1 157 -43 0 -43 0 -1 -42z"/>
<path d="M2720 2755 l0 -255 45 0 45 0 0 255 0 255 -45 0 -45 0 0 -255z"/>
<path d="M3310 2861 c0 -122 -3 -151 -16 -161 -8 -8 -14 -9 -12 -3 2 7 -65 70
-147 136 -5 4 -35 30 -65 57 -53 48 -79 63 -64 38 4 -8 3 -10 -2 -5 -5 5 -9
13 -9 19 0 6 -15 22 -32 36 l-33 25 0 -252 0 -251 45 0 45 0 0 150 c0 166 1
169 59 120 19 -16 39 -26 45 -23 6 3 8 2 3 -2 -10 -11 85 -96 100 -90 7 2 12
-1 10 -8 -1 -7 4 -11 11 -9 8 1 11 -2 8 -7 -5 -8 124 -121 138 -121 4 0 6 113
6 250 l0 250 -45 0 -45 0 0 -149z"/>
<path d="M3520 2755 l0 -257 143 4 c109 2 148 7 162 18 10 8 21 14 24 12 12
-5 78 53 102 88 13 20 23 50 23 72 0 23 4 32 9 25 8 -12 3 67 -7 108 -2 11 -5
23 -5 26 -3 25 -81 104 -124 126 -48 25 -63 28 -189 31 l-138 4 0 -257z m284
155 c22 -10 44 -17 50 -13 6 3 8 2 3 -2 -4 -5 -1 -18 7 -30 8 -12 21 -44 28
-71 15 -50 10 -77 -20 -132 -7 -12 -10 -28 -6 -34 4 -7 3 -8 -4 -4 -6 4 -25
-3 -42 -15 -24 -19 -47 -24 -120 -27 l-90 -4 0 176 0 176 78 0 c58 0 88 -5
116 -20z"/>
<path d="M4090 2755 l0 -255 45 0 45 0 0 255 0 255 -45 0 -45 0 0 -255z"/>
<path d="M2079 2287 c6 -8 10 -50 8 -105 -2 -79 0 -92 14 -92 14 0 17 15 18
105 l2 105 -27 0 c-21 0 -24 -3 -15 -13z"/>
<path d="M1755 2270 c-4 -6 3 -32 15 -58 12 -26 29 -64 38 -84 10 -22 24 -38
34 -38 18 0 15 13 -22 95 -5 11 -14 37 -20 58 -11 36 -32 48 -45 27z"/>
<path d="M3041 2243 c-16 -17 -16 -131 -1 -147 19 -19 25 3 20 80 -4 71 -7 80
-19 67z"/>
<path d="M2002 2204 c-26 -18 -30 -74 -6 -98 24 -25 34 -19 23 13 -7 20 -7 41
-1 65 6 20 10 36 8 36 -1 0 -12 -7 -24 -16z"/>
<path d="M2244 2205 c8 -8 18 -24 21 -35 4 -11 11 -18 16 -15 5 3 6 -1 3 -9
-6 -16 12 -56 25 -56 5 0 11 9 14 20 3 11 2 20 -2 20 -4 0 -17 20 -29 45 -15
32 -28 45 -43 45 -18 0 -19 -2 -5 -15z"/>
<path d="M2360 2209 c0 -5 5 -7 10 -4 6 3 10 8 10 11 0 2 -4 4 -10 4 -5 0 -10
-5 -10 -11z"/>
<path d="M2597 2195 c3 -14 12 -25 19 -25 19 0 17 14 -5 34 -18 16 -18 16 -14
-9z"/>
<path d="M2748 2214 c7 -4 12 -27 12 -65 0 -46 3 -59 15 -59 11 0 15 13 17 50
0 28 1 56 2 63 1 7 -12 13 -29 14 -16 1 -24 0 -17 -3z"/>
<path d="M2838 2210 c19 -8 22 -17 22 -65 0 -42 3 -55 15 -55 12 0 15 13 15
59 0 62 -7 72 -53 70 l-22 0 23 -9z"/>
<path d="M3227 2168 c6 -67 9 -78 25 -78 10 0 12 17 10 65 -3 54 -7 65 -21 65
-16 0 -17 -7 -14 -52z"/>
<path d="M3324 2155 c0 -56 3 -65 18 -65 15 0 18 9 18 65 0 56 -3 65 -18 65
-15 0 -18 -9 -18 -65z"/>
<path d="M3498 2155 c3 -48 7 -65 18 -65 10 0 14 14 14 55 0 30 1 58 3 63 1 4
-7 8 -18 10 -19 3 -20 -2 -17 -63z"/>
<path d="M3572 2204 c4 -21 22 -23 26 -1 2 10 -3 17 -13 17 -10 0 -15 -6 -13
-16z"/>
<path d="M3744 2212 c-37 -24 -39 -93 -4 -112 29 -15 32 -12 17 18 -14 30 -16
70 -4 90 9 14 7 15 -9 4z"/>
<path d="M3808 2194 c3 -15 11 -24 23 -24 17 0 17 3 7 20 -19 30 -36 32 -30 4z"/>
<path d="M3971 2202 c-12 -23 -2 -39 40 -60 21 -11 33 -24 33 -35 -3 -28 19
-14 23 15 3 23 -2 29 -43 47 -39 18 -45 23 -34 36 8 10 9 15 2 15 -6 0 -16 -8
-21 -18z"/>
<path d="M4046 2205 c4 -8 8 -15 10 -15 2 0 4 7 4 15 0 8 -4 15 -10 15 -5 0
-7 -7 -4 -15z"/>
<path d="M2510 2191 c-23 -44 -2 -101 37 -101 15 0 15 2 1 18 -11 11 -14 31
-11 60 4 45 -9 56 -27 23z"/>
</g>
</svg>
