<?xml version="1.0" standalone="no"?>
<!DOCTYPE svg PUBLIC "-//W3C//DTD SVG 20010904//EN"
 "http://www.w3.org/TR/2001/REC-SVG-20010904/DTD/svg10.dtd">
<svg version="1.0" xmlns="http://www.w3.org/2000/svg"
 width="669.000000pt" height="373.000000pt" viewBox="0 0 669.000000 373.000000"
 preserveAspectRatio="xMidYMid meet">

<g transform="translate(0.000000,373.000000) scale(0.100000,-0.100000)"
fill="#000000" stroke="none">
<path d="M1430 2431 c-5 -11 -10 -47 -10 -81 0 -96 4 -100 113 -100 59 0 97 4
105 12 12 12 17 143 6 172 -5 13 -24 16 -105 16 -87 0 -99 -2 -109 -19z"/>
<path d="M1805 2438 c-3 -7 -4 -220 -3 -473 l3 -460 95 0 95 0 5 303 c3 185 9
303 15 303 5 1 86 -136 180 -305 l170 -306 126 0 c84 0 129 4 137 12 9 9 12
125 12 459 0 246 -3 454 -6 463 -8 22 -182 24 -190 2 -3 -8 -6 -141 -7 -297
-1 -178 -6 -284 -12 -286 -6 -2 -85 131 -176 294 l-166 298 -137 3 c-104 2
-138 -1 -141 -10z"/>
<path d="M3010 2207 c-169 -38 -270 -176 -270 -368 0 -148 75 -277 192 -330
46 -21 68 -24 168 -24 99 0 122 3 165 23 87 40 164 133 165 200 0 21 -4 22
-79 22 -70 0 -80 -2 -86 -19 -20 -63 -127 -106 -205 -82 -63 19 -117 91 -119
158 l-1 23 248 2 247 3 0 75 c-1 130 -65 235 -178 290 -74 35 -165 45 -247 27z
m168 -157 c29 -18 62 -71 62 -100 0 -6 -52 -10 -146 -10 l-146 0 7 28 c7 31
50 80 80 92 38 16 109 11 143 -10z"/>
<path d="M3705 2186 c-64 -29 -127 -101 -157 -175 -32 -81 -32 -252 0 -332 49
-122 142 -189 263 -189 77 0 118 12 176 52 l42 29 3 -148 3 -148 95 0 95 0 3
449 c2 330 -1 452 -9 463 -9 10 -34 13 -98 11 -86 -3 -86 -3 -89 -30 -3 -29
-16 -36 -28 -17 -3 6 -30 22 -58 35 -71 33 -171 33 -241 0z m241 -135 c63 -29
89 -89 89 -206 0 -140 -43 -203 -142 -212 -66 -6 -111 20 -143 83 -34 66 -35
198 -3 259 46 89 114 114 199 76z"/>
<path d="M4334 2186 c-3 -8 -4 -126 -2 -262 3 -245 3 -250 29 -299 29 -57 91
-109 152 -127 23 -7 89 -13 147 -12 126 0 191 23 245 87 60 70 66 103 63 378
l-3 244 -83 3 c-53 2 -89 -1 -98 -9 -11 -9 -14 -53 -14 -221 0 -221 -5 -254
-49 -292 -27 -25 -100 -26 -136 -2 -49 32 -55 66 -55 294 0 148 -3 211 -12
220 -18 18 -177 16 -184 -2z"/>
<path d="M5075 2188 c-3 -7 -4 -164 -3 -348 l3 -335 95 0 95 0 0 345 0 345
-93 3 c-68 2 -94 -1 -97 -10z"/>
</g>
</svg>
