<svg width="35" height="35" viewBox="0 0 35 35" fill="none" xmlns="http://www.w3.org/2000/svg">
<g clip-path="url(#clip0_2775_156)">
<path d="M17.5 32.8125C13.4389 32.8125 9.54408 31.1992 6.67243 28.3276C3.80078 25.4559 2.1875 21.5611 2.1875 17.5C2.1875 13.4389 3.80078 9.54408 6.67243 6.67243C9.54408 3.80078 13.4389 2.1875 17.5 2.1875C21.5611 2.1875 25.4559 3.80078 28.3276 6.67243C31.1992 9.54408 32.8125 13.4389 32.8125 17.5C32.8125 21.5611 31.1992 25.4559 28.3276 28.3276C25.4559 31.1992 21.5611 32.8125 17.5 32.8125ZM17.5 35C22.1413 35 26.5925 33.1563 29.8744 29.8744C33.1563 26.5925 35 22.1413 35 17.5C35 12.8587 33.1563 8.40752 29.8744 5.12563C26.5925 1.84374 22.1413 0 17.5 0C12.8587 0 8.40752 1.84374 5.12563 5.12563C1.84374 8.40752 0 12.8587 0 17.5C0 22.1413 1.84374 26.5925 5.12563 29.8744C8.40752 33.1563 12.8587 35 17.5 35Z" fill="white"/>
<path d="M17.5 8.75C17.7901 8.75 18.0683 8.86523 18.2734 9.07035C18.4785 9.27547 18.5938 9.55367 18.5938 9.84375V16.4062H25.1562C25.4463 16.4062 25.7245 16.5215 25.9296 16.7266C26.1348 16.9317 26.25 17.2099 26.25 17.5C26.25 17.7901 26.1348 18.0683 25.9296 18.2734C25.7245 18.4785 25.4463 18.5938 25.1562 18.5938H18.5938V25.1562C18.5938 25.4463 18.4785 25.7245 18.2734 25.9296C18.0683 26.1348 17.7901 26.25 17.5 26.25C17.2099 26.25 16.9317 26.1348 16.7266 25.9296C16.5215 25.7245 16.4062 25.4463 16.4062 25.1562V18.5938H9.84375C9.55367 18.5938 9.27547 18.4785 9.07035 18.2734C8.86523 18.0683 8.75 17.7901 8.75 17.5C8.75 17.2099 8.86523 16.9317 9.07035 16.7266C9.27547 16.5215 9.55367 16.4062 9.84375 16.4062H16.4062V9.84375C16.4062 9.55367 16.5215 9.27547 16.7266 9.07035C16.9317 8.86523 17.2099 8.75 17.5 8.75Z" fill="white"/>
</g>
<defs>
<clipPath id="clip0_2775_156">
<rect width="35" height="35" fill="white"/>
</clipPath>
</defs>
</svg>
