<svg width="20" height="20" viewBox="0 0 20 20" fill="none" xmlns="http://www.w3.org/2000/svg">
<path d="M9.25331 7.21836L4.44672 11.8545C4.50229 11.8897 4.55786 11.9326 4.61343 11.9717C5.23856 12.456 6.00609 12.7646 6.66942 12.7646C7.35013 12.7646 8.08639 12.4638 8.72542 11.9717C9.49295 11.3663 10.5175 11.3663 11.285 11.9717C11.8789 12.4326 12.6047 12.7646 13.341 12.7646C13.6918 12.7646 14.0738 12.6786 14.4489 12.5224C14.3377 7.79642 10.896 4 6.66595 4H4.44325C3.82854 4 3.3319 4.55853 3.3319 5.24985C3.3319 5.94117 3.82854 6.4997 4.44325 6.4997H6.66595C7.60018 6.4997 8.48231 6.75748 9.25331 7.21836ZM14.4454 6.4997C14.4454 7.16266 14.6796 7.79847 15.0964 8.26726C15.5132 8.73604 16.0786 8.9994 16.6681 8.9994C17.2576 8.9994 17.8229 8.73604 18.2398 8.26726C18.6566 7.79847 18.8908 7.16266 18.8908 6.4997C18.8908 5.83674 18.6566 5.20093 18.2398 4.73215C17.8229 4.26336 17.2576 4 16.6681 4C16.0786 4 15.5132 4.26336 15.0964 4.73215C14.6796 5.20093 14.4454 5.83674 14.4454 6.4997ZM9.3575 12.9794C8.57608 13.5848 7.62102 13.9988 6.66595 13.9988C5.73172 13.9988 4.74193 13.577 3.97787 12.9794C3.56459 12.6474 3.00197 12.6747 2.61647 13.0458C2.11636 13.5106 1.48776 13.866 0.85915 14.0301C0.261801 14.1863 -0.109806 14.8581 0.0291119 15.5299C0.168032 16.2017 0.765381 16.6196 1.36273 16.4634C2.21361 16.2407 2.92209 15.8189 3.384 15.4869C4.39116 16.0962 5.51987 16.4985 6.66595 16.4985C7.77383 16.4985 8.77057 16.1118 9.45822 15.7603C9.65965 15.6549 9.84372 15.5533 10 15.4596C10.1563 15.5533 10.3369 15.6588 10.5418 15.7603C11.2294 16.1118 12.2262 16.4985 13.334 16.4985C14.4801 16.4985 15.6088 16.0962 16.616 15.4908C17.0814 15.8189 17.7864 16.2446 18.6373 16.4673C19.2346 16.6235 19.832 16.2056 19.9709 15.5338C20.1098 14.862 19.7382 14.1902 19.1408 14.034C18.5122 13.8699 17.8836 13.5145 17.3835 13.0497C16.998 12.6826 16.4354 12.6552 16.0221 12.9833C15.2546 13.577 14.2683 13.9988 13.334 13.9988C12.379 13.9988 11.4239 13.5848 10.6425 12.9794C10.257 12.6708 9.743 12.6708 9.3575 12.9794Z" fill="black"/>
</svg>
