<svg width="35" height="35" viewBox="0 0 35 35" fill="none" xmlns="http://www.w3.org/2000/svg">
<g clip-path="url(#clip0_1246_102)">
<path d="M34.6804 0.319519C34.8318 0.471183 34.9354 0.663994 34.9781 0.874001C35.0209 1.08401 35.0011 1.30196 34.921 1.50077L22.192 33.3223C22.0798 33.6026 21.8925 33.8464 21.6506 34.0271C21.4088 34.2077 21.1218 34.3181 20.8212 34.3462C20.5207 34.3742 20.2182 34.3188 19.9471 34.186C19.6761 34.0532 19.4469 33.8482 19.2848 33.5936L12.3329 22.667L1.40634 15.7151C1.15109 15.5532 0.945543 15.324 0.812365 15.0526C0.679186 14.7813 0.623557 14.4784 0.651616 14.1774C0.679676 13.8765 0.790333 13.5891 0.971376 13.3471C1.15242 13.105 1.39681 12.9177 1.67759 12.8058L33.4991 0.081082C33.698 0.00104633 33.9159 -0.0188156 34.1259 0.0239636C34.3359 0.0667427 34.5287 0.170278 34.6804 0.321707V0.319519ZM14.516 22.0283L20.5557 31.5176L30.9091 5.63514L14.516 22.0283ZM29.3626 4.08858L3.48009 14.442L12.9716 20.4795L29.3626 4.08858Z" fill="black"/>
</g>
<defs>
<clipPath id="clip0_1246_102">
<rect width="35" height="35" fill="white"/>
</clipPath>
</defs>
</svg>
