<svg width="20" height="15" viewBox="0 0 20 15" fill="none" xmlns="http://www.w3.org/2000/svg">
<path d="M1.69386 5.65497C3.85048 3.46445 6.776 2.11772 10.0016 2.11772C13.2271 2.11772 16.1526 3.46445 18.3093 5.65497C18.7093 6.05866 19.3407 6.04542 19.722 5.62519C20.1033 5.20495 20.0908 4.53324 19.6939 4.12955C17.1809 1.57174 13.7647 0 10.0016 0C6.2384 0 2.82218 1.57174 0.306112 4.12624C-0.0908327 4.53324 -0.103335 5.20164 0.277982 5.62519C0.659299 6.04873 1.29379 6.06197 1.69073 5.65497H1.69386ZM10.0016 7.41201C11.7769 7.41201 13.3959 8.1102 14.6336 9.26502C15.0493 9.65216 15.6807 9.60915 16.0464 9.17237C16.4121 8.73559 16.3714 8.06387 15.9589 7.67673C14.3711 6.19432 12.2832 5.29429 10.0016 5.29429C7.71991 5.29429 5.63205 6.19432 4.04739 7.67673C3.6317 8.06387 3.59419 8.73228 3.95988 9.17237C4.32557 9.61245 4.95693 9.65216 5.37263 9.26502C6.60722 8.1102 8.22625 7.41201 10.0047 7.41201H10.0016ZM12.0019 12.7063C12.0019 12.1447 11.7912 11.606 11.416 11.2089C11.0409 10.8117 10.5321 10.5886 10.0016 10.5886C9.47104 10.5886 8.96224 10.8117 8.5871 11.2089C8.21196 11.606 8.00121 12.1447 8.00121 12.7063C8.00121 13.268 8.21196 13.8066 8.5871 14.2038C8.96224 14.6009 9.47104 14.824 10.0016 14.824C10.5321 14.824 11.0409 14.6009 11.416 14.2038C11.7912 13.8066 12.0019 13.268 12.0019 12.7063Z" fill="black"/>
</svg>
