<svg width="50" height="47" viewBox="0 0 50 47" fill="none" xmlns="http://www.w3.org/2000/svg">
<path d="M14.5186 13.6476C14.6638 13.5108 14.8362 13.4023 15.026 13.3282C15.2158 13.2542 15.4193 13.2161 15.6249 13.2161C15.8304 13.2161 16.0339 13.2542 16.2237 13.3282C16.4135 13.4023 16.586 13.5108 16.7311 13.6476L24.9999 21.4231L33.2686 13.6476C33.4139 13.511 33.5864 13.4027 33.7762 13.3288C33.966 13.2549 34.1694 13.2168 34.3749 13.2168C34.5803 13.2168 34.7838 13.2549 34.9736 13.3288C35.1634 13.4027 35.3358 13.511 35.4811 13.6476C35.6264 13.7841 35.7416 13.9462 35.8202 14.1247C35.8989 14.3031 35.9393 14.4943 35.9393 14.6874C35.9393 14.8806 35.8989 15.0718 35.8202 15.2502C35.7416 15.4286 35.6264 15.5908 35.4811 15.7273L27.2092 23.4999L35.4811 31.2726C35.6264 31.4091 35.7416 31.5712 35.8202 31.7497C35.8989 31.9281 35.9393 32.1193 35.9393 32.3124C35.9393 32.5056 35.8989 32.6968 35.8202 32.8752C35.7416 33.0536 35.6264 33.2158 35.4811 33.3523C35.3358 33.4889 35.1634 33.5972 34.9736 33.6711C34.7838 33.745 34.5803 33.783 34.3749 33.783C34.1694 33.783 33.966 33.745 33.7762 33.6711C33.5864 33.5972 33.4139 33.4889 33.2686 33.3523L24.9999 25.5768L16.7311 33.3523C16.5858 33.4889 16.4134 33.5972 16.2236 33.6711C16.0338 33.745 15.8303 33.783 15.6249 33.783C15.4194 33.783 15.216 33.745 15.0262 33.6711C14.8364 33.5972 14.6639 33.4889 14.5186 33.3523C14.3733 33.2158 14.2581 33.0536 14.1795 32.8752C14.1009 32.6968 14.0604 32.5056 14.0604 32.3124C14.0604 32.1193 14.1009 31.9281 14.1795 31.7497C14.2581 31.5712 14.3733 31.4091 14.5186 31.2726L22.7905 23.4999L14.5186 15.7273C14.3731 15.5909 14.2577 15.4288 14.1789 15.2504C14.1001 15.0719 14.0596 14.8806 14.0596 14.6874C14.0596 14.4942 14.1001 14.303 14.1789 14.1245C14.2577 13.9461 14.3731 13.784 14.5186 13.6476Z" fill="black"/>
</svg>
